<?xml version="1.0" encoding="utf-8"?>
<!-- Generator: Adobe Illustrator 24.1.0, SVG Export Plug-In . SVG Version: 6.00 Build 0)  -->
<svg version="1.1" id="Calque_1" xmlns="http://www.w3.org/2000/svg" xmlns:xlink="http://www.w3.org/1999/xlink" x="0px" y="0px"
	 viewBox="0 0 400 398" style="enable-background:new 0 0 400 398;" xml:space="preserve">
<style type="text/css">
	.st0{fill:#BD8BCA;}
	.st1{fill:#FFFFFF;}
	.st2{fill:#E47C3C;}
</style>
<g>
	<circle class="st0" cx="194.5" cy="193.5" r="165.5"/>
	<circle class="st1" cx="157.5" cy="160.5" r="117.5"/>
	<circle class="st0" cx="109" cy="109" r="29"/>
	<g>
		<path class="st2" d="M91,176.9l11.2,16.8c-1,0-2.1,0-3.1,0l-9.6-14.4l-3.5,5.2c0,3.7,0,6.7,0,9.3c-1.1,0-2.1,0-3.1,0
			c0-6.6,0-23.5,0-29.3c1,0,2.1,0,3.1,0c0,5.1,0,13.8,0,19.2l12.8-19.2c0.2,0,0.4,0,0.6,0L91,176.9z"/>
		<path class="st2" d="M119.9,188l1.9,1.5c-1.8,2.5-4.3,4.8-8.9,4.8c-5.9,0-10.3-5.3-10.3-11.9s4.4-11.9,10.3-11.9
			c3,0,6.2,2.3,6.2,4.8c0,3.7-3.8,6.5-8.9,6.3c-2.6-0.1-4,1.3-4.4,2.6c1.2,5.9,5.1,10,9.1,9.3C117.1,193.2,119,190.8,119.9,188z
			 M105.7,183.6c0.5-1,1.8-2.3,4.4-2.3c3.7-0.1,5.9-2.6,5.9-5.5c0-2.6-2.2-4.9-5.1-4.4C106.9,172,104.7,177.4,105.7,183.6z"/>
		<path class="st2" d="M140.4,175.1c0,1.3,0,16.5,0,18.6h-3.1c0-2.5,0-17,0-18.6c0-2.6-1.5-3.7-2.8-3.7c-3.3,0-6.3,6.9-6.3,9.5
			c0,1.6,0,11.5,0,12.7c-1,0-2.1,0-3.1,0c0-4.4,0-17.5,0-23h3.1c0,2.2,0,7.5,0,7.5c1.1-3.7,4-7.9,7.3-7.9
			C138.2,170.2,140.4,172,140.4,175.1z"/>
		<path class="st2" d="M161.6,193.7c-0.8,0-2,0-3.1,0l-8.8-10.6l-1.2,1.4c0,0.2,0,0.5,0,0.7v2.4h0v6.1h-3.1c0-5.1,0-25.6,0-29.3h3.1
			c0,4,0,14.2,0,19.4l10.8-13.1c0.2,0,0.5,0,0.6,0c0,0-8.3,10-8.7,10.5L161.6,193.7z"/>
		<path class="st2" d="M182.3,182.2c0,6.6-4.4,11.9-10.3,11.9c-5.9,0-10.3-5.3-10.3-11.9c0-6.6,4.4-11.9,10.3-11.9
			C177.9,170.2,182.3,175.6,182.3,182.2z M179.3,180.9c-1.1-6.2-5.1-10.6-9.2-9.9c-4.1,0.7-6.3,6.3-5.2,12.4
			c1.1,6.2,5.1,10.6,9.2,9.9C178.2,192.6,180.4,187.1,179.3,180.9z"/>
		<path class="st2" d="M185.2,180.1v-2.1h9.8v2.1H185.2z"/>
		<path class="st2" d="M217.1,164.3c0,5.9,0,24.6,0,29.3c-1,0-2.1,0-3.1,0c0-3.3,0-9.8,0-14.7h-11.6c0,5.1,0,12.1,0,14.7h-3.1
			c0-7.5,0-23.6,0-29.3c1,0,2.1,0,3.1,0c0,3.9,0,10.2,0,14.1h11.6c0-6.1,0-8.5,0-14.1C214.9,164.3,216,164.3,217.1,164.3z"/>
		<path class="st2" d="M241.8,182.2c0,6.6-4.4,11.9-10.3,11.9c-5.9,0-10.3-5.3-10.3-11.9c0-6.6,4.4-11.9,10.3-11.9
			C237.5,170.2,241.8,175.6,241.8,182.2z M238.8,180.9c-1.1-6.2-5.1-10.6-9.2-9.9c-4.1,0.7-6.3,6.3-5.2,12.4
			c1.1,6.2,5.1,10.6,9.2,9.9S239.9,187.1,238.8,180.9z"/>
	</g>
</g>
</svg>
